<svg xmlns="http://www.w3.org/2000/svg" xmlns:lucid="lucid" width="1594.64" height="1120"><g lucid:page-tab-id="0_0"><path d="M32.5 52.5l-6.25-6.25L20 40v609.3h6.25l6.25-6.25zm0 603.05l-6.25-6.25H20v118.48h6.25l6.25-6.25zm0 118.48l-6.25-6.25H20v268.47l6.25-6.25 6.25-6.25z" fill="#fff"/><path d="M32.5 52.5v590.55M20 649.3V40m12.5 615.55v105.98M20 767.78V649.3m12.5 124.73v249.72m-12.5 12.5V767.78m12.5 6.25" stroke="#000" stroke-width="2" fill="none"/><path d="M32.5 1023.75l-6.25 6.25-6.25 6.25h94.74v-12.5zm262.24 0v12.5h160.8v-12.5zm340.8 0v12.5H839V1030l-6.25-6.25zm209.7 0L839 1030v6.25h209.7V1030l-6.24-6.25zm209.72 0l-6.25 6.25v6.25h510.88l-6.25-6.25-6.25-6.25z" fill="#fff"/><path d="M32.5 1023.75h82.24v12.5H20m274.74-12.5h160.8v12.5h-160.8v-12.5zm340.8 0h197.2m6.26 12.5H635.55v-12.5m209.7 0h197.2m6.26 12.5H839m215.95-12.5h492.13m12.5 12.5H1048.7m6.26-12.5" stroke="#000" stroke-width="2" fill="none"/><path d="M1547.08 52.5l6.25-6.25 6.25-6.25h-135.54v6.25l6.25 6.25zm-129.3 0l6.26-6.25V40H1048.7v6.25l6.26 6.25zm-375.32 0l6.25-6.25V40H334.04v6.25l6.25 6.25zm-714.68 0l6.25-6.25V40H20l6.25 6.25 6.25 6.25z" fill="#fff"/><path d="M1547.08 52.5h-116.8m-6.24-12.5h135.54m-141.8 12.5h-362.82M1048.7 40h375.34m-381.59 12.5H340.28M334.03 40h714.68M327.8 52.5H32.5M20 40h314.03m-6.25 12.5" stroke="#000" stroke-width="2" fill="none"/><path d="M1547.08 1023.75l6.25 6.25 6.25 6.25V550.88h-6.25l-6.25 6.25zm0-479.12l6.25 6.25h6.25V166.25h-6.25l-6.25 6.25zm0-384.63l6.25 6.25h6.25V40l-6.25 6.25-6.25 6.25z" fill="#fff"/><path d="M1547.08 1023.75V557.13m12.5-6.25v485.37m-12.5-491.62V172.5m12.5-6.25v384.63M1547.08 160V52.5m12.5-12.5v126.25m-12.5-6.25" stroke="#000" stroke-width="2" fill="none"/><g fill="none"><path d="M294.74 1030l-63.64 63.64M204.74 1030c0 24.85 8.78 46.07 26.36 63.64M114.74 1030l63.64 63.64m26.36-63.64c0 24.85-8.8 46.07-26.36 63.64" stroke="#000" stroke-width="2"/><path d="M294.74 1120h-180v-90h180z"/></g><g fill="none"><path d="M635.55 1030l-63.64 63.64M545.56 1030c0 24.85 8.8 46.07 26.36 63.64M455.56 1030l63.64 63.64m26.35-63.64c0 24.85-8.8 46.07-26.36 63.64" stroke="#000" stroke-width="2"/><path d="M635.55 1120h-180v-90h180z"/></g><path d="M32.5 643.05l-6.25 6.25 6.25 6.25H120l6.25-6.25v-6.25zm93.75 0v6.25l6.25 6.25h496.8v-6.25l-6.25-6.25z" fill="#fff"/><path d="M32.5 643.05h93.75m-6.25 12.5H32.5m93.75-12.5h496.8m6.25 12.5H132.5m-6.25-12.5" stroke="#000" stroke-width="2" fill="none"/><path d="M623.05 643.05l6.25 6.25 6.25-6.25v-18.28h-12.5zm0-108.28h12.5v-187l-6.25-6.24-6.25 6.25z" fill="#fff"/><path d="M623.05 643.05v-18.28h12.5v18.28m-12.5-108.28v-187m12.5 0v187h-12.5" stroke="#000" stroke-width="2" fill="none"/><path d="M1042.46 347.78v-12.5H929v12.5zm-293.46 0v-12.5H629.3v6.25l6.25 6.25zm-125.95 0l6.25-6.25v-6.25H340.28l-6.25 6.25-6.25 6.25z" fill="#fff"/><path d="M1042.46 347.78H929v-12.5h113.46v12.5zm-293.46 0H635.55m-6.25-12.5H749v12.5m-125.95 0H327.78m12.5-12.5H629.3m-6.25 12.5" stroke="#000" stroke-width="2" fill="none"/><path d="M327.78 347.78l6.25-6.25 6.25-6.25V180h-6.25l-6.25 6.25zm0-174.03l6.25 6.25h6.25V52.5l-6.25-6.25-6.25 6.25z" fill="#fff"/><path d="M327.78 347.78V186.25m12.5-6.25v155.28m-12.5-161.53V52.5m12.5 0V180m-12.5-6.25" stroke="#000" stroke-width="2" fill="none"/><g fill="none"><path d="M629.3 624.77l-63.64-63.64m63.64-26.36c-24.85 0-46.06 8.78-63.64 26.36" stroke="#000" stroke-width="2"/><path d="M539.3 624.77v-90h90v90z"/></g><path d="M1054.96 52.5l-6.25-6.25-6.24 6.25V440h12.5zm0 477.5h-12.5v20.88h6.25l6.26-6.25z" fill="#fff"/><path d="M1054.96 52.5V440h-12.5V52.5m12.5 477.5v14.63m-12.5 6.25V530h12.5" stroke="#000" stroke-width="2" fill="none"/><path d="M1054.96 544.63l-6.25 6.25 6.26 6.25h492.12l6.25-6.25-6.25-6.25z" fill="#fff"/><path d="M1054.96 544.63h492.12m0 12.5h-492.12m0-12.5" stroke="#000" stroke-width="2" fill="none"/><g fill="none"><path d="M929 341.53l-63.64 63.64M839 341.53c0 24.85 8.8 46.06 26.36 63.64M749 341.53l63.64 63.64M839 341.53c0 24.85-8.78 46.06-26.36 63.64" stroke="#000" stroke-width="2"/><path d="M929 431.53H749v-90h180z"/></g><g fill="none"><path d="M1048.7 440l63.65 63.64M1048.7 530c24.86 0 46.07-8.8 63.65-26.36" stroke="#000" stroke-width="2"/><path d="M1138.7 440v90h-90v-90z"/></g><path d="M1430.3 160l-6.26 6.25-6.25 6.25h129.28l6.25-6.25-6.25-6.25z" fill="#fff"/><path d="M1430.3 160h116.78m0 12.5h-129.3m12.5-12.5" stroke="#000" stroke-width="2" fill="none"/><path d="M1430.3 52.5l-6.26-6.25-6.25 6.25v19.56h12.5zm0 109.56h-12.5v10.44l6.24-6.25 6.25-6.25z" fill="#fff"/><path d="M1430.3 52.5v19.56h-12.5V52.5m12.5 109.56V160m-12.5 12.5v-10.44h12.5" stroke="#000" stroke-width="2" fill="none"/><path d="M211 173.75l-6.26 6.25-6.25 6.25h129.28l6.25-6.25-6.25-6.25z" fill="#fff"/><path d="M211 173.75h116.78m0 12.5h-129.3m12.5-12.5" stroke="#000" stroke-width="2" fill="none"/><path d="M211 53.75h-12.5v37.5H211zm0 127.5h-12.5H211z" fill="#fff"/><path d="M211 53.75v37.5h-12.5v-37.5H211zm0 127.5h-12.5H211z" stroke="#000" stroke-width="2" fill="none"/><g fill="none"><path d="M204.74 181.25L141.1 117.6m63.64-26.35c-24.86 0-46.07 8.8-63.64 26.36" stroke="#000" stroke-width="2"/><path d="M114.74 181.25v-90h90v90z"/></g><g fill="none"><path d="M1424.04 162.06l-63.64-63.64m63.64-26.36c-24.85 0-46.06 8.8-63.64 26.36" stroke="#000" stroke-width="2"/><path d="M1334.04 162.06v-90h90v90z"/></g><path d="M1536.85 83.3c0 13-6.34 23.45-14.16 23.45-7.78 0-14.12-10.45-14.12-23.46 0-12.95 6.34-23.47 14.1-23.47 7.83 0 14.17 10.52 14.17 23.46z" stroke="#000" stroke-width="2" fill="#fff"/><path d="M1540.3 97.76c0 13.65-7.87 24.74-17.6 24.74-9.7 0-17.56-11.1-17.56-24.74 0-13.7 7.86-24.8 17.55-24.8 9.73 0 17.6 11.1 17.6 24.8z" stroke="#000" stroke-width="2" fill="#fff"/><path d="M1502.42 58.8h40.55c.55 0 .97.9.97 2.05V74c0 1.13-.42 2.03-.97 2.03h-40.55c-.5 0-.93-.9-.93-2.04V60.84c0-1.14.4-2.04.92-2.04zM1513.17 76.15h19.1c.5 0 .92.7.92 1.66 0 .9-.43 1.67-.94 1.67h-19.1c-.54 0-.96-.77-.96-1.66 0-.95.42-1.65.97-1.65zM305.2 83.3c0 13-6.34 23.45-14.16 23.45-7.78 0-14.1-10.45-14.1-23.46 0-12.95 6.32-23.47 14.1-23.47 7.82 0 14.15 10.52 14.15 23.46z" stroke="#000" stroke-width="2" fill="#fff"/><path d="M308.64 97.76c0 13.65-7.87 24.74-17.6 24.74-9.7 0-17.55-11.1-17.55-24.74 0-13.7 7.85-24.8 17.54-24.8 9.73 0 17.6 11.1 17.6 24.8z" stroke="#000" stroke-width="2" fill="#fff"/><path d="M270.77 58.8h40.54c.57 0 1 .9 1 2.05V74c0 1.13-.43 2.03-1 2.03h-40.53c-.5 0-.94-.9-.94-2.04V60.84c0-1.14.43-2.04.94-2.04zM281.52 76.15h19.08c.5 0 .94.7.94 1.66 0 .9-.43 1.67-.94 1.67h-19.08c-.55 0-.98-.77-.98-1.66 0-.95.43-1.65.98-1.65z" stroke="#000" stroke-width="2" fill="#fff"/><path d="M1054.96 557.13l-6.25-6.25h-6.24v98.42h12.51z" fill="#fff"/><path d="M1054.96 557.13v92.17m-12.5 0v-98.42m12.5 6.25" stroke="#000" stroke-width="2" fill="none"/><path d="M635.55 643.05l-6.25 6.25v6.25h203.46l6.25-6.25 6.26-6.25z" fill="#fff"/><path d="M635.55 643.05h209.7m-12.5 12.5H629.3m6.25-12.5" stroke="#000" stroke-width="2" fill="none"/><path d="M845.26 643.05L839 649.3l-6.24 6.25V740h12.5zm0 186.95h-12.5v56.25H839l6.25-6.25zm0 62.5l-6.26-6.25h-6.25v137.5L839 1030l6.25-6.25z" fill="#fff"/><path d="M845.26 643.05V740h-12.5v-84.45M845.26 830v50m-12.5 6.25V830h12.5m0 62.5v131.25m-12.5 0v-137.5m12.5 6.25" stroke="#000" stroke-width="2" fill="none"/><g><path d="M1054.96 649.3h-12.49v73.48h12.5zm0 163.48h-12.5V880l6.25 6.25h6.26zm0 73.47h-6.25l-6.24 6.25v131.25l6.25 6.25 6.26-6.25z" fill="#fff"/><path d="M1054.96 649.3v73.48h-12.5V649.3m12.5 163.48v73.47m-12.5-6.25v-67.22h12.5m0 73.47v137.5m-12.5 0V892.5m12.5-6.25" stroke="#000" stroke-width="2" fill="none"/></g><g><path d="M845.25 880l-6.25 6.25 6.25 6.25h53.6V880zm143.6 0v12.5h53.6l6.26-6.25-6.24-6.25z" fill="#fff"/><path d="M845.25 880h53.6v12.5h-53.6m143.6-12.5h53.6m0 12.5h-53.6V880" stroke="#000" stroke-width="2" fill="none"/></g><g stroke="#000" stroke-width="2" fill="#fff"><path d="M1012.44 1015.4c-13 0-23.46-6.33-23.46-14.15 0-7.78 10.45-14.1 23.46-14.1 12.94 0 23.46 6.32 23.46 14.1 0 7.82-10.52 14.15-23.46 14.15z"/><path d="M997.97 1018.85c-13.65 0-24.74-7.87-24.74-17.6 0-9.7 11.1-17.55 24.74-17.55 13.7 0 24.8 7.86 24.8 17.55 0 9.73-11.1 17.6-24.8 17.6z"/><path d="M1036.92 980.98v40.54c0 .56-.9.98-2.04.98h-13.14c-1.14 0-2.04-.42-2.04-.98v-40.54c0-.5.9-.94 2.04-.94h13.14c1.14 0 2.04.43 2.04.94zM1019.58 991.73v19.08c0 .52-.7.95-1.66.95-.9 0-1.66-.43-1.66-.94v-19.07c0-.55.77-.98 1.66-.98.96 0 1.66.43 1.66.98z"/></g><g stroke="#000" stroke-width="2"><path d="M845.26 1023.75h35c0-19.32-15.68-35-35-35v35z" fill="#fff"/><path d="M849.5 996.94c4.1-4.1 12.45-2.34 18.68 3.9 6.23 6.22 7.98 14.58 3.9 18.68-4.07 4.06-12.44 2.34-18.67-3.92-6.25-6.23-8-14.6-3.9-18.66z" fill="#fff"/><path d="M851.45 998.9c3.4-3.4 10.3-1.92 15.44 3.22 5.13 5.15 6.6 12.04 3.2 15.44-3.35 3.36-10.28 1.92-15.43-3.22-5.14-5.15-6.58-12.08-3.22-15.44z" fill="#fff"/><path d="M851.6 1017.42c.87.87 2.3.87 3.18 0 .07-.04.1-.1.14-.14l4.5-5.85-1.84-1.85-5.85 4.5c-.03.05-.07.08-.14.15-.88.88-.88 2.28 0 3.2zM853.7 1019.06c.7-.66 1.78-.66 2.48.04.7.7.7 1.78.03 2.45-.65.7-1.77.66-2.44-.04-.7-.7-.73-1.77-.07-2.44zM847.46 1012.8c.67-.67 1.75-.67 2.45.03.7.7.7 1.8.05 2.5-.67.65-1.75.62-2.45-.08-.7-.67-.74-1.8-.04-2.45z" fill="#fff"/><path d="M860.8 1007.34c.5 0 .87.38.87.87 0 .5-.38.92-.87.92-.5 0-.9-.42-.9-.9 0-.5.4-.88.9-.88z"/></g><g fill="none"><path d="M988.86 886.25l-63.64 63.64m-26.36-63.65c0 24.85 8.78 46.07 26.36 63.64" stroke="#000" stroke-width="2"/><path d="M988.86 976.25h-90v-90h90z"/></g><g fill="none"><path d="M1048.7 722.78l63.65 63.63m-63.64 26.38c24.86 0 46.07-8.8 63.65-26.37" stroke="#000" stroke-width="2"/><path d="M1138.7 722.78v90h-90v-90z"/></g><g fill="none"><path d="M839 830l-63.63-63.64M839 740c-24.85 0-46.06 8.8-63.63 26.36" stroke="#000" stroke-width="2"/><path d="M749 830v-90h90v90z"/></g><g><path d="M132.5 655.55l-6.25-6.25-6.25 6.25v8h12.5zm0 79.46H120v26.52l6.25 6.25 6.25 6.25z" fill="#fff"/><path d="M132.5 655.55v8H120v-8M132.5 735v39.02m-12.5-12.5v-26.5h12.5" stroke="#000" stroke-width="2" fill="none"/></g><g><path d="M32.5 761.53l-6.25 6.25 6.25 6.25h100l-6.25-6.26-6.25-6.25z" fill="#fff"/><path d="M32.5 761.53H120m12.5 12.5h-100m0-12.5" stroke="#000" stroke-width="2" fill="none"/></g><g fill="none"><path d="M126.25 663.54l50.54 50.53M126.24 735c19.74 0 36.58-6.97 50.54-20.93" stroke="#000" stroke-width="2"/><path d="M197.72 663.54V735h-71.47v-71.46z"/></g><path d="M32.5 655.55H80v19.87H32.5zM32.5 675.42H80v19.86H32.5zM32.5 695.28H80v19.86H32.5zM32.5 715.14H80V735H32.5z" stroke="#000" stroke-width="2" fill="#fff"/></g></svg>