<svg xmlns="http://www.w3.org/2000/svg" xmlns:lucid="lucid" width="1580.91" height="1100"><g lucid:page-tab-id="0_0"><path d="M32.5 32.5l-6.25-6.25L20 20v255.06h6.25l6.25-6.25zm0 248.8l-6.25-6.24H20v741.2l6.25-6.26 6.25-6.25z" fill="#fff"/><path d="M32.5 32.5v236.3M20 275.07V20m12.5 261.3v722.45m-12.5 12.5v-741.2m12.5 6.26" stroke="#000" stroke-width="2" fill="none"/><path d="M32.5 1003.75l-6.25 6.25-6.25 6.25h309.26v-12.5zm476.76 0v12.5H969.8v-12.5zm640.53 0v12.5h409.78l-6.25-6.25-6.25-6.25z" fill="#fff"/><path d="M32.5 1003.75h296.76v12.5H20m489.26-12.5H969.8v12.5H509.25v-12.5zm640.53 0h397.28m12.5 12.5h-409.8v-12.5" stroke="#000" stroke-width="2" fill="none"/><path d="M1547.08 32.5l6.25-6.25 6.25-6.25H158.75v6.25L165 32.5zm-1394.58 0l6.25-6.25V20H20l6.25 6.25 6.25 6.25z" fill="#fff"/><path d="M1547.08 32.5H165M158.75 20h1400.83M152.5 32.5h-120M20 20h138.75m-6.25 12.5" stroke="#000" stroke-width="2" fill="none"/><path d="M1547.08 1003.75l6.25 6.25 6.25 6.25V20l-6.25 6.25-6.25 6.25z" fill="#fff"/><path d="M1547.08 1003.75V32.5m12.5-12.5v996.25m-12.5-12.5" stroke="#000" stroke-width="2" fill="none"/><path d="M165 32.5l-6.25-6.25-6.25 6.25v146.3H165zm0 236.3h-12.5l6.25 6.26 6.25 6.25z" fill="#fff"/><path d="M165 32.5v146.3h-12.5V32.5M165 268.8v12.5m-12.5-12.5H165" stroke="#000" stroke-width="2" fill="none"/><path d="M32.5 268.8l-6.25 6.26 6.25 6.25H165l-6.25-6.24-6.25-6.25z" fill="#fff"/><path d="M32.5 268.8h120m12.5 12.5H32.5m0-12.5" stroke="#000" stroke-width="2" fill="none"/><path d="M65.42 60h80v20h-80zM65.42 80h80v20h-80zM65.42 100h80v20h-80zM65.42 120h80v20h-80zM65.42 140h80v20h-80zM65.42 160h80v20h-80zM65.42 180h80v20h-80zM65.42 200h80v20h-80z" stroke="#000" stroke-width="2" fill="#fff"/><g fill="none"><path d="M158.75 178.8l63.64 63.65m-63.65 26.36c24.85 0 46.07-8.78 63.64-26.35" stroke="#000" stroke-width="2"/><path d="M248.75 178.8v90h-90v-90z"/></g><path d="M220.06 43.76c0-1.28.7-2.48 1.7-3.12.17-.08.28-.24.44-.32.55-.24 1.16-.32 1.7-.32h47.23c2.14 0 3.9 1.68 3.9 3.92v9.84h-19.75l2.03-2.08c.56-.56.45-1.36 0-1.84l-1.3-1.36c-.28-.24-.56-.32-.9-.32-.37 0-.7.08-.98.32l-6.55 6.64c-.27.32-.38.56-.38.88 0 .4.2.72.37 1.04l6.55 6.64c.55.48 1.32.48 1.87 0l1.3-1.36c.56-.56.56-1.36 0-1.84l-2.13-2.08h19.75v57.68c0 2.16-1.65 3.92-3.8 3.92h-47.2c-2.16 0-3.92-1.68-3.92-3.92l.06-72.32zm16.4 20.96c-2.65 0-4.85 2.24-4.85 4.88 0 2.64 2.2 4.8 4.85 4.8 2.7 0 4.8-2.16 4.8-4.8 0-2.64-2.04-4.88-4.8-4.88zm17 33.76c1.1 1.28 1.82 1.68 3.2 1.6l10.72-.16c1.38-.08 2.42-1.44 2.3-2.56-.04-1.6-1.14-2.48-2.63-2.48l-9.85-.08-2.3-3.12-4.2 3.36 2.76 3.44zM227.8 90.4l8.76-1.92c.6-.16 1.05-.64 1.33-1.2l2.02-4.48c.22.16 4.73 7.6 4.73 7.6l-5.17 3.92c-1.6 1.36-1.76 2.56-1.15 4.24l5.33 12.24c.44 1.2 1.77 1.92 3.1 1.52 1.3-.48 2.2-2 1.58-3.28l-4.62-11.12 6.93-5.2c1.87-1.12 2.53-3.36 1.2-5.6l-6.15-10.08 4.5-1.6 8.16 4.08c1.04.64 2.42.08 2.9-.88.45-.88.12-2.16-.76-2.64l-8.53-4.48c-.44-.24-.88-.4-1.32-.4-.44 0-.88.08-1.26.16l-7.17 2.32c-.27.08-.44.16-.66.32l-3.85 2.96c-.55.32-.7.96-.88 1.36l-1.98 6.16-7.87 2c-1.1.24-1.6 1.28-1.6 2.24.1.88 1.3 2.08 2.4 1.76z" stroke="#000" stroke-opacity="0" stroke-width=".91" fill="#c54242"/><g fill="none"><path d="M509.26 1010l-63.64 63.64M419.26 1010c0 24.85 8.8 46.07 26.36 63.64M329.26 1010l63.64 63.64m26.36-63.64c0 24.85-8.78 46.07-26.36 63.64" stroke="#000" stroke-width="2"/><path d="M509.26 1100h-180v-90h180z"/></g><g fill="none"><path d="M1149.8 1010l-63.65 63.64M1059.8 1010c0 24.85 8.78 46.07 26.35 63.64M969.8 1010l63.63 63.64m26.36-63.64c0 24.85-8.8 46.07-26.37 63.64" stroke="#000" stroke-width="2"/><path d="M1149.8 1100h-180v-90h180z"/></g></g></svg>